<?xml version="1.0" encoding="UTF-8"?>
<svg id="Layer_2" data-name="Layer 2" xmlns="http://www.w3.org/2000/svg" viewBox="0 0 265.28 112.21">
  <defs>
    <style>
      .cls-1 {
        fill: #fff;
      }

      .cls-2 {
        fill: none;
        stroke: #000;
        stroke-miterlimit: 10;
        stroke-width: 6px;
      }
    </style>
  </defs>
  <g id="Layer_1-2" data-name="Layer 1">
    <path class="cls-2" d="M251.82,109.21H13.45c0-5.77-4.68-10.45-10.45-10.45V13.45c5.77,0,10.45-4.68,10.45-10.45h238.37c0,5.77,4.68,10.45,10.45,10.45v85.31c-5.77,0-10.45,4.68-10.45,10.45Z"/>
    <g>
      <path d="M15.64,23.97h23.41v6.9h-7.9v41.34h-7.57V30.86h-7.94v-6.9Z"/>
      <path d="M41.88,35.54c0-8.07,3.83-12.11,11.5-12.11s11.5,4.04,11.5,12.11v25.09c0,8.07-3.83,12.11-11.5,12.11s-11.5-4.04-11.5-12.11v-25.09ZM43.32,21.65l6.39-8.07h7.26l6.39,8.07h-6.83l-3.23-4-3.16,4h-6.83ZM49.44,61.1c0,3.18,1.31,4.78,3.94,4.78s3.94-1.59,3.94-4.78v-26.03c0-3.16-1.31-4.74-3.94-4.74s-3.94,1.58-3.94,4.74v26.03Z"/>
      <path d="M69.76,23.97h7.57v48.23h-7.57V23.97Z"/>
      <path d="M91.45,23.97h23.41v6.9h-7.9v41.34h-7.57V30.86h-7.94v-6.9Z"/>
      <path d="M140.53,33.79v26.91c0,8.07-3.76,12.11-11.27,12.11s-11.3-4.04-11.3-12.11V23.97h7.57v37.2c0,3.14,1.31,4.71,3.94,4.71s3.9-1.57,3.9-4.71V23.97h3.33v-3.09h6.53v6.26l-2.69,6.66ZM132.76,75.8v7.03h-7.03v-7.03h7.03Z"/>
      <path d="M154.32,23.97h23.41v6.9h-7.9v41.34h-7.57V30.86h-7.94v-6.9Z"/>
      <path d="M181.16,23.97h7.57v48.23h-7.57V23.97ZM194.11,13.57l-7.43,8.07h-5.38l4.98-8.07h7.84Z"/>
      <path d="M201,37.29v34.91h-6.83V23.97h9.52l7.77,28.89v-28.89h6.76v48.23h-7.8l-9.42-34.91Z"/>
      <path d="M231.2,72.2h-7.57V23.97h7.57v20.69h8.61v-20.69h7.74v48.23h-7.74v-20.65h-8.61v20.65Z"/>
    </g>
    <path d="M3,88.11h259.28v.12c0,11.58-9.4,20.99-20.99,20.99H23.99c-11.58,0-20.99-9.4-20.99-20.99v-.12h0Z"/>
    <g>
      <path class="cls-1" d="M21.49,103.6v-5.62h-2.11v-1.55h6.04v1.55h-2.18v5.62h-1.75Z"/>
      <path class="cls-1" d="M29.67,103.66c-.59,0-1.12-.12-1.58-.36-.46-.24-.82-.58-1.09-1-.27-.43-.4-.91-.4-1.45v-4.42h1.76v4.33c0,.26.06.49.17.7.12.2.27.37.48.49.2.12.42.18.66.18.25,0,.48-.06.69-.18.2-.12.37-.28.49-.49.12-.21.18-.44.18-.7v-4.33h.63c.31,0,.53-.11.67-.33.14-.22.21-.54.21-.95h1.32c0,.37-.06.71-.17,1.02s-.29.56-.53.76c-.24.2-.54.32-.91.36l.47-.48v4.04c0,.54-.13,1.02-.39,1.45-.26.43-.62.76-1.08,1-.46.24-.98.36-1.58.36ZM29.66,105.91c-.31,0-.56-.08-.73-.23-.17-.15-.26-.37-.26-.64s.09-.47.26-.63c.17-.16.42-.25.73-.25s.57.08.75.23c.18.15.27.37.27.65,0,.26-.09.47-.27.63-.18.16-.43.24-.74.24Z"/>
      <path class="cls-1" d="M37.72,103.6v-7.17h1.57l2.6,4.23h-1.11s2.63-4.23,2.63-4.23h1.52v7.17h-1.7v-2.17c0-.63.02-1.19.05-1.69.03-.5.08-.99.16-1.48l.19.53-1.98,3.06h-.7l-1.93-3.04.19-.55c.08.46.14.93.17,1.42.03.49.05,1.07.05,1.76v2.17h-1.71Z"/>
      <path class="cls-1" d="M46.58,103.6v-1.47h1.21v-4.22h-1.21v-1.47h4.17v1.47h-1.21v4.22h1.21v1.47h-4.17ZM49.66,95.95l-2.32-.8.58-1.21,2.14,1.19-.4.82Z"/>
      <path class="cls-1" d="M52.39,103.6v-7.17h1.57l3.77,5.11-.34-.04c-.05-.38-.09-.74-.12-1.07s-.06-.68-.07-1.04-.02-.78-.02-1.25v-1.71h1.7v7.17h-1.59l-3.91-5.26.5.07c.05.42.09.76.11,1.03s.05.51.06.7c.01.19.02.38.03.54,0,.17.01.35.01.56v2.35h-1.71Z"/>
      <path class="cls-1" d="M60.66,103.6v-7.17h1.75v7.17h-1.75ZM61.36,100.82v-1.58h4.68v1.58h-4.68ZM65.12,103.6v-7.17h1.75v7.17h-1.75Z"/>
      <path class="cls-1" d="M73.47,103.6v-5.62h-2.11v-1.55h6.04v1.55h-2.18v5.62h-1.75Z"/>
      <path class="cls-1" d="M78.62,103.6v-7.17h1.75v7.17h-1.75ZM79.31,100.82v-1.58h4.68v1.58h-4.68ZM83.07,103.6v-7.17h1.75v7.17h-1.75Z"/>
      <path class="cls-1" d="M89.87,103.7c-.54,0-1.04-.09-1.49-.28-.45-.18-.85-.44-1.18-.77s-.59-.72-.77-1.18c-.18-.45-.28-.95-.28-1.48s.09-1.04.28-1.49c.18-.45.44-.85.77-1.18.33-.33.72-.59,1.18-.78s.95-.28,1.49-.28,1.02.09,1.47.28.84.44,1.17.78c.33.33.59.73.77,1.18.18.45.28.95.28,1.49s-.09,1.02-.28,1.47c-.18.45-.44.84-.77,1.18-.33.33-.72.59-1.17.78-.45.18-.94.28-1.47.28ZM89.87,102.06c.28,0,.54-.05.77-.15s.44-.25.61-.43c.17-.18.31-.4.4-.66.1-.25.14-.53.14-.82s-.05-.58-.14-.83c-.1-.25-.23-.47-.4-.66-.17-.19-.38-.33-.61-.43-.23-.1-.49-.15-.77-.15s-.54.05-.77.15c-.24.1-.44.25-.61.43-.17.19-.31.41-.4.66s-.14.53-.14.83c0,.4.08.75.25,1.06.17.31.4.55.69.73.29.18.62.27,1,.27ZM88.51,95.89l-.52-.59,1.4-1.1h.93l1.39,1.1-.51.59-1.49-.73h.3l-1.49.73Z"/>
      <path class="cls-1" d="M94.76,103.6v-1.47h1.21v-4.22h-1.21v-1.47h4.17v1.47h-1.21v4.22h1.21v1.47h-4.17Z"/>
      <path class="cls-1" d="M107.09,103.7c-.54,0-1.04-.09-1.49-.27s-.85-.44-1.18-.77c-.33-.33-.59-.72-.77-1.18-.18-.45-.27-.95-.27-1.49s.09-1.02.28-1.47c.19-.45.45-.84.79-1.18s.74-.59,1.2-.78c.46-.18.96-.28,1.5-.28.34,0,.68.04,1,.13.33.09.63.22.92.39.28.17.53.38.73.63l-1.07,1.22c-.21-.23-.45-.41-.71-.54-.26-.13-.55-.19-.88-.19-.27,0-.53.05-.77.14-.24.1-.45.24-.63.42s-.32.4-.42.66-.15.54-.15.86.05.6.15.85.24.47.43.66.41.32.68.41.55.14.88.14c.21,0,.41-.03.61-.09.19-.06.38-.14.55-.25.17-.11.32-.23.44-.37l.85,1.35c-.16.18-.39.35-.67.5-.28.15-.6.27-.94.35-.34.08-.69.13-1.05.13Z"/>
      <path class="cls-1" d="M114.2,103.7c-.54,0-1.04-.09-1.49-.28-.45-.18-.85-.44-1.18-.77s-.59-.72-.77-1.18c-.18-.45-.28-.95-.28-1.48s.09-1.04.28-1.49c.18-.45.44-.85.77-1.18.33-.33.72-.59,1.18-.78s.95-.28,1.49-.28,1.02.09,1.47.28.84.44,1.17.78c.33.33.59.73.77,1.18.18.45.28.95.28,1.49s-.09,1.02-.28,1.47c-.18.45-.44.84-.77,1.18-.33.33-.72.59-1.17.78-.45.18-.94.28-1.47.28ZM114.2,102.06c.28,0,.54-.05.77-.15s.44-.25.61-.43c.17-.18.31-.4.4-.66.1-.25.14-.53.14-.82s-.05-.58-.14-.83c-.1-.25-.23-.47-.4-.66-.17-.19-.38-.33-.61-.43-.23-.1-.49-.15-.77-.15s-.54.05-.77.15c-.24.1-.44.25-.61.43-.17.19-.31.41-.4.66s-.14.53-.14.83c0,.4.08.75.25,1.06.17.31.4.55.69.73.29.18.62.27,1,.27ZM115.18,95.95l-2.32-.8.58-1.21,2.14,1.19-.4.82Z"/>
      <path class="cls-1" d="M119.22,103.6v-7.17h1.57l3.77,5.11-.34-.04c-.05-.38-.09-.74-.12-1.07s-.06-.68-.07-1.04-.02-.78-.02-1.25v-1.71h1.7v7.17h-1.59l-3.91-5.26.5.07c.05.42.09.76.11,1.03s.05.51.06.7c.01.19.02.38.03.54,0,.17.01.35.01.56v2.35h-1.71Z"/>
      <path class="cls-1" d="M130.76,103.6v-7.17h3.02c.53,0,1.01.09,1.44.26s.81.42,1.13.74.56.7.73,1.14c.17.44.26.92.26,1.45s-.09,1.02-.26,1.45c-.17.44-.41.81-.73,1.13s-.69.56-1.12.74c-.43.17-.92.26-1.45.26h-3.02ZM132.51,102.39l-.23-.34h1.44c.28,0,.53-.05.76-.14.23-.1.42-.23.58-.41s.28-.4.37-.65c.09-.25.13-.53.13-.83s-.04-.59-.13-.83c-.09-.25-.21-.46-.37-.65-.16-.18-.35-.32-.58-.41-.23-.1-.48-.14-.76-.14h-1.47l.26-.32v4.73Z"/>
      <path class="cls-1" d="M141.93,103.7c-.54,0-1.04-.09-1.49-.28-.45-.18-.85-.44-1.18-.77s-.59-.72-.77-1.18c-.18-.45-.28-.95-.28-1.48s.09-1.04.28-1.49c.18-.45.44-.85.77-1.18.33-.33.72-.59,1.18-.78s.95-.28,1.49-.28,1.02.09,1.47.28.84.44,1.17.78c.33.33.59.73.77,1.18.18.45.28.95.28,1.49s-.09,1.02-.28,1.47c-.18.45-.44.84-.77,1.18-.33.33-.72.59-1.17.78-.45.18-.94.28-1.47.28ZM141.93,102.06c.28,0,.54-.05.77-.15s.44-.25.61-.43c.17-.18.31-.4.4-.66.1-.25.14-.53.14-.82s-.05-.58-.14-.83c-.1-.25-.23-.47-.4-.66-.17-.19-.38-.33-.61-.43-.23-.1-.49-.15-.77-.15s-.54.05-.77.15c-.24.1-.44.25-.61.43-.17.19-.31.41-.4.66s-.14.53-.14.83c0,.4.08.75.25,1.06.17.31.4.55.69.73.29.18.62.27,1,.27Z"/>
      <path class="cls-1" d="M150.22,103.6v-7.17h3.02c.53,0,1.01.09,1.44.26s.81.42,1.13.74.56.7.73,1.14c.17.44.26.92.26,1.45s-.09,1.02-.26,1.45c-.17.44-.41.81-.73,1.13s-.69.56-1.12.74c-.43.17-.92.26-1.45.26h-3.02ZM151.97,102.39l-.23-.34h1.44c.28,0,.53-.05.76-.14.23-.1.42-.23.58-.41s.28-.4.37-.65c.09-.25.13-.53.13-.83s-.04-.59-.13-.83c-.09-.25-.21-.46-.37-.65-.16-.18-.35-.32-.58-.41-.23-.1-.48-.14-.76-.14h-1.47l.26-.32v4.73Z"/>
      <path class="cls-1" d="M161.15,103.66c-.59,0-1.12-.12-1.58-.36-.46-.24-.82-.58-1.09-1-.27-.43-.4-.91-.4-1.45v-4.42h1.76v4.33c0,.26.06.49.17.7.12.2.27.37.48.49.2.12.42.18.66.18.25,0,.48-.06.69-.18.2-.12.37-.28.49-.49.12-.21.18-.44.18-.7v-4.33h.63c.31,0,.53-.11.67-.33.14-.22.21-.54.21-.95h1.32c0,.37-.06.71-.17,1.02s-.29.56-.53.76c-.24.2-.54.32-.91.36l.47-.48v4.04c0,.54-.13,1.02-.39,1.45-.26.43-.62.76-1.08,1-.46.24-.98.36-1.58.36ZM161.14,105.91c-.31,0-.56-.08-.73-.23-.17-.15-.26-.37-.26-.64s.09-.47.26-.63c.17-.16.42-.25.73-.25s.57.08.75.23c.18.15.27.37.27.65,0,.26-.09.47-.27.63-.18.16-.43.24-.74.24Z"/>
      <path class="cls-1" d="M170.76,103.6v-5.62h-2.11v-1.55h6.04v1.55h-2.18v5.62h-1.75Z"/>
      <path class="cls-1" d="M175.91,103.6v-7.17h3.24c.46,0,.88.1,1.25.3.37.2.66.47.88.81.21.34.32.74.32,1.18s-.11.85-.32,1.21c-.22.35-.51.64-.88.84-.37.21-.78.31-1.25.31h-1.58v2.51h-1.67ZM177.58,99.73h1.42c.18,0,.33-.04.47-.12.13-.08.24-.19.31-.32.07-.14.11-.29.11-.47s-.04-.34-.13-.48c-.09-.14-.2-.24-.36-.32-.15-.08-.34-.12-.55-.12h-1.27v1.83ZM179.89,103.6l-1.82-3.25,1.79-.26,2.03,3.51h-2Z"/>
      <path class="cls-1" d="M186.38,103.7c-.54,0-1.04-.09-1.49-.28-.45-.18-.85-.44-1.18-.77s-.59-.72-.77-1.18c-.18-.45-.28-.95-.28-1.48s.09-1.04.28-1.49c.18-.45.44-.85.77-1.18.33-.33.72-.59,1.18-.78s.95-.28,1.49-.28c.14,0,.29.01.44.03.15.02.3.05.44.08.12.03.23.05.33.07s.21.03.32.03c.28,0,.49-.11.64-.34.15-.23.22-.56.22-1h1.31c0,.37-.04.71-.13,1.03s-.25.58-.48.79c-.23.21-.55.32-.97.34l.25-.24c.27.22.51.48.71.78.2.3.35.63.46.99.11.36.16.75.16,1.16,0,.53-.09,1.02-.28,1.47-.18.45-.44.84-.77,1.18-.33.33-.72.59-1.17.78-.45.18-.94.28-1.47.28ZM186.38,102.06c.28,0,.54-.05.77-.15s.44-.25.61-.43c.17-.18.31-.4.4-.66.1-.25.14-.53.14-.82s-.05-.58-.14-.83c-.1-.25-.23-.47-.4-.66-.17-.19-.38-.33-.61-.43-.23-.1-.49-.15-.77-.15s-.54.05-.77.15c-.24.1-.44.25-.61.43-.17.19-.31.41-.4.66s-.14.53-.14.83c0,.4.08.75.25,1.06.17.31.4.55.69.73.29.18.62.27,1,.27ZM187.37,95.95l-2.32-.8.58-1.21,2.14,1.19-.4.82Z"/>
      <path class="cls-1" d="M191.28,103.6v-1.47h1.21v-4.22h-1.21v-1.47h4.17v1.47h-1.21v4.22h1.21v1.47h-4.17Z"/>
      <path class="cls-1" d="M201.91,103.6v-5.62h-2.11v-1.55h6.04v1.55h-2.18v5.62h-1.75Z"/>
      <path class="cls-1" d="M210.33,103.7c-.54,0-1.04-.09-1.49-.28-.45-.18-.85-.44-1.18-.77s-.59-.72-.77-1.18c-.18-.45-.28-.95-.28-1.48s.09-1.04.28-1.49c.18-.45.44-.85.77-1.18.33-.33.72-.59,1.18-.78s.95-.28,1.49-.28,1.02.09,1.47.28.84.44,1.17.78c.33.33.59.73.77,1.18.18.45.28.95.28,1.49s-.09,1.02-.28,1.47c-.18.45-.44.84-.77,1.18-.33.33-.72.59-1.17.78-.45.18-.94.28-1.47.28ZM210.33,102.06c.28,0,.54-.05.77-.15s.44-.25.61-.43c.17-.18.31-.4.4-.66.1-.25.14-.53.14-.82s-.05-.58-.14-.83c-.1-.25-.23-.47-.4-.66-.17-.19-.38-.33-.61-.43-.23-.1-.49-.15-.77-.15s-.54.05-.77.15c-.24.1-.44.25-.61.43-.17.19-.31.41-.4.66s-.14.53-.14.83c0,.4.08.75.25,1.06.17.31.4.55.69.73.29.18.62.27,1,.27ZM208.94,95.92l-.48-.56,1.39-1.04h.92l1.37,1.04-.46.56-1.53-.66h.3l-1.52.66ZM212.16,94.6l-.67-.47.97-1.68,1.03.75-1.34,1.4Z"/>
      <path class="cls-1" d="M215.22,103.6v-1.47h1.21v-4.22h-1.21v-1.47h4.17v1.47h-1.21v4.22h1.21v1.47h-4.17Z"/>
      <path class="cls-1" d="M224.3,103.6v-7.17h1.57l2.6,4.23h-1.11s2.63-4.23,2.63-4.23h1.52v7.17h-1.7v-2.17c0-.63.02-1.19.05-1.69.03-.5.08-.99.16-1.48l.19.53-1.98,3.06h-.7l-1.93-3.04.19-.55c.08.46.14.93.17,1.42.03.49.05,1.07.05,1.76v2.17h-1.71Z"/>
      <path class="cls-1" d="M232.39,103.6l2.84-7.17h1.48l2.82,7.17h-1.76l-1.36-3.63c-.05-.14-.1-.3-.16-.46-.06-.16-.11-.33-.17-.51-.05-.18-.11-.35-.15-.51-.05-.16-.09-.32-.12-.46h.3c-.04.16-.09.33-.13.49-.05.16-.1.33-.15.49-.05.16-.11.33-.17.49-.06.16-.12.33-.18.5l-1.35,3.61h-1.72ZM233.75,102.23l.55-1.33h3.28l.55,1.33h-4.38ZM234.6,95.92l-.48-.56,1.39-1.04h.92l1.37,1.04-.46.56-1.53-.66h.3l-1.52.66ZM237.81,94.6l-.67-.47.97-1.68,1.03.75-1.34,1.4Z"/>
      <path class="cls-1" d="M241.98,103.6v-5.62h-2.11v-1.55h6.04v1.55h-2.18v5.62h-1.75Z"/>
    </g>
  </g>
</svg>